<svg width="0" height="0" class="hidden">
  <symbol fill="none" xmlns="http://www.w3.org/2000/svg" viewBox="0 0 16 16" id="clock">
    <g clip-path="url(#clip0)" fill="#fff">
      <path d="M14.316 4.21a.667.667 0 00-.31.89A6.674 6.674 0 018 14.666 6.674 6.674 0 011.334 8 6.674 6.674 0 018 1.333a6.59 6.59 0 014.139 1.439.667.667 0 10.83-1.044A8.013 8.013 0 008 0C3.589 0 0 3.589 0 8s3.589 8 8 8 8-3.589 8-8a7.918 7.918 0 00-.793-3.48.666.666 0 00-.89-.31z"></path>
      <path d="M8 2.667a.667.667 0 00-.667.666V8c0 .368.299.666.667.666h3.333a.667.667 0 000-1.333H8.667v-4A.667.667 0 008 2.666z"></path>
    </g>
    <defs>
      <clipPath id="clip0">
        <path fill="#fff" d="M0 0h16v16H0z"></path>
      </clipPath>
    </defs>
  </symbol>
  <symbol xmlns="http://www.w3.org/2000/svg" viewBox="0 0 26 26" id="instagram">
    <g clip-path="url(#clip0)">
      <path d="M25.975 7.644c-.061-1.381-.285-2.331-.605-3.154a6.344 6.344 0 00-1.503-2.306A6.399 6.399 0 0021.566.686c-.828-.32-1.772-.544-3.154-.605C17.02.015 16.578 0 13.048 0S9.077.015 7.69.076C6.308.137 5.359.361 4.536.681A6.344 6.344 0 002.23 2.184a6.401 6.401 0 00-1.498 2.3c-.32.83-.544 1.774-.605 3.156C.061 9.03.046 9.473.046 13.002c0 3.53.015 3.972.076 5.359.061 1.381.285 2.331.605 3.154.33.874.843 1.656 1.503 2.306a6.4 6.4 0 002.3 1.498c.829.32 1.773.544 3.155.605 1.386.06 1.828.076 5.359.076 3.53 0 3.971-.015 5.358-.076 1.381-.061 2.331-.285 3.154-.605a6.65 6.65 0 003.804-3.804c.32-.828.544-1.773.605-3.154.06-1.387.076-1.829.076-5.359 0-3.53-.005-3.971-.066-5.358zM23.633 18.26c-.056 1.27-.269 1.956-.447 2.413a4.313 4.313 0 01-2.468 2.468c-.457.178-1.148.392-2.413.447-1.371.061-1.782.076-5.251.076-3.47 0-3.886-.015-5.252-.076-1.27-.055-1.956-.269-2.413-.447a4 4 0 01-1.493-.97 4.043 4.043 0 01-.97-1.493c-.178-.457-.391-1.148-.447-2.412-.061-1.372-.076-1.783-.076-5.252 0-3.47.015-3.886.076-5.252.056-1.27.269-1.956.447-2.413A3.952 3.952 0 013.9 3.855c.421-.432.93-.762 1.493-.97.457-.178 1.148-.391 2.413-.447 1.371-.06 1.783-.076 5.252-.076 3.474 0 3.885.015 5.251.076 1.27.056 1.956.27 2.413.447a3.997 3.997 0 011.493.97c.432.422.762.93.97 1.493.178.457.391 1.148.447 2.413.061 1.371.077 1.783.077 5.252s-.016 3.875-.077 5.246z"></path>
      <path d="M13.048 6.323a6.68 6.68 0 00-6.679 6.68 6.68 6.68 0 006.68 6.678 6.68 6.68 0 006.678-6.679 6.68 6.68 0 00-6.679-6.679zm0 11.012a4.333 4.333 0 11.002-8.667 4.333 4.333 0 01-.002 8.667zM21.55 6.06a1.56 1.56 0 11-3.118 0 1.56 1.56 0 013.119 0z"></path>
    </g>
    <defs>
      <clipPath id="clip0">
        <path d="M0 0h26v26H0z"></path>
      </clipPath>
    </defs>
  </symbol>
  <symbol fill="none" xmlns="http://www.w3.org/2000/svg" viewBox="0 0 16 16" id="location">
    <path d="M8 0a5.34 5.34 0 00-5.333 5.333c0 .883.22 1.758.64 2.535l4.401 7.96a.333.333 0 00.584 0l4.403-7.963A5.34 5.34 0 008 0zm0 8a2.67 2.67 0 01-2.667-2.667A2.67 2.67 0 018 2.667a2.67 2.67 0 012.667 2.666A2.67 2.67 0 018 8z" fill="#fff"></path>
  </symbol>
  <symbol fill="none" xmlns="http://www.w3.org/2000/svg" viewBox="0 0 42 42" id="next0">
    <g clip-path="url(#clip0)">
      <path d="M10.137 22.152l19.426 19.373a1.629 1.629 0 002.3-2.306L13.592 21 31.863 2.78a1.628 1.628 0 10-2.3-2.305L10.137 19.847a1.626 1.626 0 000 2.305z" fill="#fff"></path>
    </g>
    <defs>
      <clipPath id="clip0">
        <path fill="#fff" transform="rotate(-180 21 21)" d="M0 0h42v42H0z"></path>
      </clipPath>
    </defs>
  </symbol>
  <symbol fill="none" xmlns="http://www.w3.org/2000/svg" viewBox="0 0 42 42" id="next1">
    <g clip-path="url(#clip0)">
      <path d="M31.863 19.848L12.437.475a1.629 1.629 0 00-2.3 2.306L28.408 21 10.137 39.22a1.628 1.628 0 102.3 2.305l19.426-19.372a1.626 1.626 0 000-2.305z" fill="#fff"></path>
    </g>
    <defs>
      <clipPath id="clip0">
        <path fill="#fff" d="M0 0h42v42H0z"></path>
      </clipPath>
    </defs>
  </symbol>
  <symbol fill="none" xmlns="http://www.w3.org/2000/svg" viewBox="0 0 16 16" id="phone">
    <g clip-path="url(#clip0)">
      <path d="M15.565 11.742L13.332 9.51c-.798-.798-2.153-.479-2.472.558-.24.718-1.037 1.116-1.755.957-1.595-.399-3.748-2.472-4.146-4.147-.24-.718.239-1.515.956-1.754 1.037-.32 1.356-1.675.559-2.472L4.24.419c-.638-.559-1.595-.559-2.153 0L.573 1.934c-1.516 1.595.16 5.821 3.907 9.57 3.748 3.747 7.974 5.502 9.57 3.907l1.515-1.515c.558-.639.558-1.595 0-2.154z" fill="#fff"></path>
    </g>
    <defs>
      <clipPath id="clip0">
        <path fill="#fff" d="M0 0h16v16H0z"></path>
      </clipPath>
    </defs>
  </symbol>
  <symbol xmlns="http://www.w3.org/2000/svg" viewBox="0 0 20 20" id="reload">
    <path d="M10.039.74A9.63 9.63 0 003.32 3.448V.74a.74.74 0 10-1.481 0v4.444a.74.74 0 00.507.703L6.79 7.37a.742.742 0 10.468-1.408L3.977 4.87a8.115 8.115 0 11-2.025 4.142.74.74 0 10-1.461-.247A9.64 9.64 0 009.987 20 9.63 9.63 0 0010.039.74z" ></path>
  </symbol>
  <symbol xmlns="http://www.w3.org/2000/svg" viewBox="0 0 26 26" id="vk">
    <path d="M13 0C5.82 0 0 5.82 0 13s5.82 13 13 13 13-5.82 13-13S20.18 0 13 0zm6.594 14.406c.606.592 1.247 1.149 1.791 1.802.241.289.468.587.641.923.247.48.024 1.005-.405 1.033h-2.663c-.688.056-1.235-.22-1.697-.691-.368-.375-.71-.775-1.065-1.163a2.49 2.49 0 00-.48-.426c-.362-.237-.678-.164-.886.215-.212.386-.26.814-.28 1.243-.03.628-.219.792-.849.822-1.346.063-2.624-.141-3.811-.82-1.048-.599-1.858-1.444-2.565-2.4-1.375-1.867-2.429-3.914-3.375-6.02-.213-.474-.057-.728.466-.737.87-.017 1.739-.015 2.608-.001.354.005.588.208.724.542a16.182 16.182 0 001.767 3.275c.192.271.389.542.668.734.309.212.544.142.69-.203.092-.219.133-.453.153-.688.069-.803.077-1.606-.043-2.407-.074-.5-.356-.824-.855-.919-.254-.048-.217-.142-.093-.287.214-.251.415-.407.817-.407h3.01c.474.093.58.306.644.783l.003 3.344c-.005.185.093.733.425.854.266.088.441-.125.6-.294.722-.765 1.236-1.67 1.697-2.605.203-.412.378-.84.548-1.267.127-.316.324-.472.68-.466l2.898.003c.086 0 .172 0 .257.015.489.084.622.294.471.77-.238.749-.7 1.372-1.151 1.997-.484.67-1 1.316-1.48 1.988-.44.614-.406.923.141 1.457z"></path>
  </symbol>
  <symbol xmlns="http://www.w3.org/2000/svg" viewBox="0 0 26 26" id="youtube">
    <path d="M24.672 6.908a3.054 3.054 0 00-2.148-2.149c-1.907-.522-9.537-.522-9.537-.522s-7.63 0-9.537.502a3.116 3.116 0 00-2.148 2.169C.8 8.815.8 12.77.8 12.77s0 3.976.502 5.863a3.054 3.054 0 002.148 2.149c1.928.522 9.537.522 9.537.522s7.63 0 9.537-.502a3.054 3.054 0 002.149-2.149c.502-1.907.502-5.862.502-5.862s.02-3.976-.503-5.883zm-14.114 9.517V9.116l6.344 3.655-6.344 3.654z" ></path>
  </symbol>
</svg>