<svg width="26" height="26" viewBox="0 0 26 26" fill="none" xmlns="http://www.w3.org/2000/svg">
<g clip-path="url(#clip0)">
<path d="M25.9747 7.64407C25.9138 6.26259 25.6904 5.31284 25.3704 4.48986C25.0403 3.61629 24.5324 2.83419 23.8669 2.18402C23.2167 1.52374 22.4295 1.01067 21.566 0.685681C20.7383 0.365657 19.7935 0.142255 18.412 0.0813452C17.0202 0.015277 16.5784 0 13.0484 0C9.51843 0 9.07659 0.015277 7.68996 0.0761868C6.30848 0.137096 5.35872 0.360697 4.53595 0.680522C3.66218 1.01067 2.88008 1.51858 2.22991 2.18402C1.56963 2.83419 1.05676 3.62145 0.731578 4.4849C0.411555 5.31284 0.188153 6.25743 0.127243 7.63891C0.0611754 9.03071 0.0458984 9.47255 0.0458984 13.0025C0.0458984 16.5325 0.0611754 16.9744 0.122085 18.361C0.182995 19.7425 0.406594 20.6922 0.726618 21.5152C1.05676 22.3888 1.56963 23.1709 2.22991 23.8211C2.88008 24.4813 3.66734 24.9944 4.53079 25.3194C5.35872 25.6394 6.30332 25.8628 7.685 25.9237C9.07143 25.9848 9.51347 25.9999 13.0435 25.9999C16.5734 25.9999 17.0153 25.9848 18.4019 25.9237C19.7834 25.8628 20.7331 25.6394 21.5559 25.3194C23.3032 24.6438 24.6847 23.2624 25.3603 21.5152C25.6801 20.6873 25.9037 19.7425 25.9646 18.361C26.0255 16.9744 26.0408 16.5325 26.0408 13.0025C26.0408 9.47255 26.0357 9.03071 25.9747 7.64407ZM23.6334 18.2594C23.5774 19.5292 23.3642 20.2149 23.1864 20.672C22.7495 21.8047 21.8505 22.7037 20.7179 23.1405C20.2607 23.3183 19.5701 23.5316 18.3053 23.5873C16.9339 23.6485 16.5226 23.6635 13.0536 23.6635C9.5845 23.6635 9.16805 23.6485 7.80166 23.5873C6.53188 23.5316 5.8462 23.3183 5.38908 23.1405C4.82542 22.9322 4.31235 22.6021 3.8959 22.1703C3.46418 21.7487 3.13404 21.2408 2.92571 20.6772C2.74794 20.22 2.53466 19.5292 2.47891 18.2646C2.4178 16.8932 2.40272 16.4817 2.40272 13.0127C2.40272 9.54358 2.4178 9.12713 2.47891 7.76093C2.53466 6.49115 2.74794 5.80547 2.92571 5.34835C3.13404 4.78449 3.46418 4.27162 3.90106 3.85497C4.32247 3.42325 4.83038 3.0931 5.39424 2.88498C5.85136 2.70721 6.5422 2.49393 7.80681 2.43798C9.17817 2.37707 9.58966 2.36179 13.0585 2.36179C16.5328 2.36179 16.944 2.37707 18.3104 2.43798C19.5802 2.49393 20.2659 2.70721 20.723 2.88498C21.2867 3.0931 21.7998 3.42325 22.2162 3.85497C22.6479 4.27658 22.9781 4.78449 23.1864 5.34835C23.3642 5.80547 23.5774 6.49611 23.6334 7.76093C23.6943 9.13229 23.7096 9.54358 23.7096 13.0127C23.7096 16.4817 23.6943 16.8881 23.6334 18.2594Z" fill="white"/>
<path d="M13.0482 6.32324C9.36086 6.32324 6.36914 9.31476 6.36914 13.0023C6.36914 16.6898 9.36086 19.6813 13.0482 19.6813C16.7357 19.6813 19.7272 16.6898 19.7272 13.0023C19.7272 9.31476 16.7357 6.32324 13.0482 6.32324ZM13.0482 17.3348C10.656 17.3348 8.71565 15.3946 8.71565 13.0023C8.71565 10.6099 10.656 8.66975 13.0482 8.66975C15.4405 8.66975 17.3807 10.6099 17.3807 13.0023C17.3807 15.3946 15.4405 17.3348 13.0482 17.3348Z" fill="white"/>
<path d="M21.5508 6.05974C21.5508 6.92081 20.8527 7.61899 19.9914 7.61899C19.1303 7.61899 18.4321 6.92081 18.4321 6.05974C18.4321 5.19847 19.1303 4.50049 19.9914 4.50049C20.8527 4.50049 21.5508 5.19847 21.5508 6.05974Z" fill="white"/>
</g>
<defs>
<clipPath id="clip0">
<rect width="26" height="26" fill="white"/>
</clipPath>
</defs>
</svg>
