<svg width="20" height="20" viewBox="0 0 20 20" fill="none" xmlns="http://www.w3.org/2000/svg">
<path d="M10.039 0.740797C7.53264 0.734026 5.1224 1.70473 3.32037 3.44665V0.740754C3.32037 0.33164 2.98873 0 2.57961 0C2.1705 0 1.8389 0.33164 1.8389 0.740754V5.18519C1.83882 5.50415 2.04294 5.78736 2.34559 5.88814L6.79002 7.3696C7.17865 7.4989 7.59853 7.28861 7.72778 6.89998C7.85708 6.51136 7.64679 6.09148 7.25816 5.96223L3.9767 4.87039C7.00799 1.5694 12.1414 1.35073 15.4423 4.38202C18.7433 7.41331 18.962 12.5467 15.9307 15.8477C12.8994 19.1487 7.76606 19.3673 4.46507 16.336C2.44129 14.4776 1.49537 11.7213 1.95153 9.01183C2.02328 8.60905 1.75496 8.22442 1.35223 8.15263C0.949495 8.08084 0.564818 8.3492 0.493029 8.75193C0.492248 8.75632 0.49151 8.76074 0.490816 8.76513C0.402144 9.2956 0.357526 9.83249 0.357483 10.3703C0.363516 15.6861 4.67128 19.9938 9.98702 20C15.3053 20.0143 19.6282 15.7146 19.6426 10.3964C19.6569 5.07811 15.3573 0.755163 10.039 0.740797Z" fill="#CCCCCC"/>
</svg>
